<?xml version="1.0" encoding="UTF-8" standalone="no"?>
<svg
   version="1.0"
   width="512"
   height="512"
   id="svg149"
   sodipodi:docname="logo.svg"
   inkscape:version="1.2.1 (9c6d41e410, 2022-07-14)"
   inkscape:export-filename="logo.png"
   inkscape:export-xdpi="33.75"
   inkscape:export-ydpi="33.75"
   xmlns:inkscape="http://www.inkscape.org/namespaces/inkscape"
   xmlns:sodipodi="http://sodipodi.sourceforge.net/DTD/sodipodi-0.dtd"
   xmlns="http://www.w3.org/2000/svg"
   xmlns:svg="http://www.w3.org/2000/svg">
  <sodipodi:namedview
     id="namedview151"
     pagecolor="#ffffff"
     bordercolor="#666666"
     borderopacity="1.0"
     inkscape:pageshadow="2"
     inkscape:pageopacity="0.0"
     inkscape:pagecheckerboard="0"
     inkscape:document-units="mm"
     showgrid="false"
     fit-margin-top="0"
     fit-margin-left="0"
     fit-margin-right="0"
     fit-margin-bottom="0"
     inkscape:zoom="0.74524307"
     inkscape:cx="264.34328"
     inkscape:cy="286.48371"
     inkscape:window-width="1920"
     inkscape:window-height="1017"
     inkscape:window-x="-8"
     inkscape:window-y="-8"
     inkscape:window-maximized="1"
     inkscape:current-layer="svg149"
     inkscape:showpageshadow="2"
     inkscape:deskcolor="#d1d1d1" />
  <defs
     id="defs3">
    <pattern
       id="EMFhbasepattern"
       patternUnits="userSpaceOnUse"
       width="6"
       height="6"
       x="0"
       y="0" />
  </defs>
  <g
     id="g1040"
     transform="matrix(1.9165952,0,0,1.9165952,25.856954,41.189601)">
    <path
       style="fill:#26bcd6;fill-opacity:1;fill-rule:evenodd;stroke:none"
       d="M 50.959623,17.839868 25.199813,47.919645 8.5599366,74.319449 3.6799727,99.519263 2.4799816,126.47906 l 10.3999234,30.71978 20.319849,27.67979 24.559818,21.43984 38.639714,12.31991 31.359764,2.47998 39.91971,-9.27993 36.23973,-21.43984 20.87984,-25.83981 9.75993,-35.59974 V 92.079318 L 227.19832,63.279531 208.79845,39.279709 187.27861,22.079836 166.39877,12.879905 146.15892,6.7199502 120.9591,3.0399775 103.75923,2.4799816 79.199413,7.3599455 Z"
       id="path5" />
    <path
       style="fill:#cceaee;fill-opacity:1;fill-rule:evenodd;stroke:none"
       d="m 160.31881,23.919823 -14.15989,-5.519959 -16.55988,-3.039978 -15.35989,1.199991 -9.83992,7.359946 1.19999,11.679913 13.5199,10.479923 20.31985,10.399923 19.59985,15.999881 17.83987,18.399864 9.19993,18.399863 3.03998,14.1599 -0.56,15.35988 -1.83998,6.71995 6.71995,2.47998 6.79995,-9.19993 4.23997,-14.71989 V 109.91919 L 201.43851,87.199354 189.1186,56.479582 173.19872,35.03974 Z"
       id="path7" />
    <path
       style="fill:#26bcd6;fill-opacity:1;fill-rule:evenodd;stroke:none"
       d="m 53.439604,20.23985 -4.959963,7.999941 0.639995,11.679913 9.839927,11.679914 26.399805,11.679913 24.559822,7.919942 16.55987,10.479922 14.1599,16.559877 7.99994,15.359888 5.51996,15.99988 4.31997,22.71983 v 26.39981 l -4.31997,17.83986 -7.99994,12.87991 -14.71989,9.19993 -20.87985,1.19999 L 76.799431,213.67842 49.119636,201.43851 28.239791,182.39865 11.679913,155.99884 2.4799816,117.27913 6.7199502,85.359368 15.359886,57.759572 30.719772,37.439723 Z"
       id="path9" />
    <path
       style="fill:#ededed;fill-opacity:1;fill-rule:evenodd;stroke:none"
       d="m 196.55854,30.719772 3.67998,18.399864 -5.51996,11.039918 9.75993,8.639936 15.99988,20.23985 -0.64,11.03992 15.99988,9.19993 -6.79995,-37.439722 -13.4399,-25.199813 z"
       id="path11" />
    <path
       style="fill:#54b948;fill-opacity:1;fill-rule:evenodd;stroke:none"
       d="M 9.8399271,156.63884 27.0398,135.119 l 0.559996,23.91982 9.279931,2.47998 0.559996,28.23979 -17.759869,-15.91988 z"
       id="path13" />
    <path
       style="fill:#54b948;fill-opacity:1;fill-rule:evenodd;stroke:none"
       d="m 214.95841,175.0387 0.63999,-15.35988 -6.15995,-11.67992 -10.47992,-11.03991 2.47998,-28.87979 16.55988,-6.15995 15.35988,0.63999 1.19999,23.91982 -6.07995,27.6798 z"
       id="path15" />
    <path
       style="fill:#cceaee;fill-opacity:1;fill-rule:evenodd;stroke:none"
       d="m 94.5593,217.43839 19.67985,-7.99994 20.23985,-1.83999 27.0398,-3.67997 -3.67997,10.39992 -24.55982,5.51996 -22.15983,1.83999 z"
       id="path17" />
    <path
       style="fill:#54b948;fill-opacity:1;fill-rule:evenodd;stroke:none"
       d="m 10.399923,74.319449 9.279931,7.359946 -4.319968,20.239855 -12.8799044,8.63993 z"
       id="path19" />
    <path
       style="fill:#54b948;fill-opacity:1;fill-rule:evenodd;stroke:none"
       d="m 120.9591,200.23852 -4.87996,-22.71983 1.19999,-14.1599 -18.399862,-13.5199 3.039982,-13.5199 3.11997,-11.67991 19.03986,-9.19994 22.07984,-7.35994 14.15989,1.19999 18.39987,7.43995 0.63999,15.91988 -3.67997,28.23979 -12.95991,4.31997 h -6.07995 l -13.5199,7.35994 -5.51996,11.67992 -2.47998,9.19993 -12.31991,11.03992 z"
       id="path21" />
    <path
       style="fill:#54b948;fill-opacity:1;fill-rule:evenodd;stroke:none"
       d="m 67.5195,97.039281 8.639936,9.839929 4.879964,4.87996 27.0398,12.31991 9.19993,-4.31997 -3.67997,-3.03997 1.83998,-12.31991 -7.99994,-4.31997 -7.919937,8.63993 -8.639936,-4.95996 2.479981,-10.399922 z"
       id="path23" />
    <path
       style="fill:#54b948;fill-opacity:1;fill-rule:evenodd;stroke:none"
       d="m 87.199354,13.5199 19.039856,-1.839987 7.35995,1.839987 -3.67997,7.359945 -11.679918,-3.039977 h -7.359945 z"
       id="path25" />
    <path
       style="fill:#49a942;fill-opacity:1;fill-rule:evenodd;stroke:none"
       d="m 88.399345,24.559818 -16.559877,6.79995 -4.319968,9.759927 -16.559877,19.039859 1.199991,11.039919 -1.199991,12.959904 5.519959,15.359886 7.359945,12.879907 2.479982,-14.719894 9.839927,11.039914 15.919882,-12.8799 15.999882,-9.279931 9.83993,-2.399982 5.51996,14.719891 5.51995,-14.719891 6.79995,-3.679973 9.75993,-11.119918 15.99988,-15.919882 -3.67997,-8.639936 -22.71983,15.359886 7.99994,-14.719891 15.35989,-13.519899 -13.5199,-9.199932 -12.31991,4.319968 -11.67992,13.5199 v 14.719891 l -4.87996,1.199991 -4.31997,-8.559937 H 99.519263 l -1.279991,-6.79995 2.479978,-11.679913 -2.479978,-3.679973 z"
       id="path27" />
    <path
       style="fill:#000000;fill-opacity:1;fill-rule:evenodd;stroke:none"
       d="M 120.39911,1.8399864 102.55924,0 84.159377,3.0399775 66.959504,7.9999407 55.919586,13.5199 44.799668,20.879845 33.75975,30.079777 22.079836,44.799668 15.359886,54.639595 8.5599366,68.159495 3.6799727,80.479404 0.63999526,97.039281 0,112.39917 l 1.8399864,19.03986 4.8799638,16.55987 6.1599548,16.55988 7.99994,12.95991 10.479923,12.2399 11.599914,10.47993 14.79989,9.19993 15.279887,6.15995 17.199873,4.87997 18.479858,3.03997 17.19988,0.64 17.75987,-1.83999 20.87984,-5.51996 13.5199,-4.95996 16.63988,-11.03992 14.71989,-12.23991 7.99994,-10.47992 9.75993,-16.55988 3.67997,-13.5199 0.64,-8.55993 -3.03998,-5.51996 -1.27999,9.19993 -2.39999,9.75993 -6.79994,10.47992 -0.56,-7.35995 -4.31997,1.2 0.56,6.79995 0.63999,7.35994 -9.83992,9.19993 -6.07996,7.99994 -11.11992,7.35995 -11.03992,6.71995 -8.55993,5.51996 -17.19987,4.31997 -18.39987,2.47998 -17.19987,0.63999 L 97.679276,214.31841 84.159377,209.43845 65.119518,203.27849 52.799609,195.27855 42.399686,186.07862 27.599796,173.83871 18.399864,159.03882 12.879905,147.35891 8.5599366,133.91901 6.7199502,122.23909 6.1599544,112.39917 7.9999407,98.879268 10.399923,85.999363 15.999881,70.639477 25.199813,52.799609 34.399745,41.119695 43.599677,30.079777 56.479582,19.679854 71.839468,12.879905 85.359368,7.9999407 104.39923,4.8799639 Z"
       id="path29" />
    <path
       style="fill:#000000;fill-opacity:1;fill-rule:evenodd;stroke:none"
       d="m 138.79897,3.6799727 20.87985,5.5199592 14.71989,5.5199591 14.71989,6.79995 12.9599,9.199931 17.75987,17.759869 9.19993,15.999881 5.51996,12.319909 3.75997,13.439901 1.83999,14.159898 -1.27999,15.99988 -3.67997,17.19987 -1.83999,-10.47992 -3.03998,-11.03992 0.56,-11.67991 -1.19999,-17.839871 -3.67997,-11.599914 -5.51996,-11.679914 -6.15996,-10.479922 -7.99994,-7.999941 -15.91988,-14.719891 -13.5199,-8.559936 -14.71989,-5.51996 -16.63988,-6.7999491 z"
       id="path31" />
    <path
       style="fill:#000000;fill-opacity:1;fill-rule:evenodd;stroke:none"
       d="m 12.879905,68.79949 12.319908,-11.039918 7.999941,-4.319968 12.239909,-6.799949 14.719891,-7.359946 6.79995,-1.199991 V 40.5597 L 55.919586,46.079659 41.119695,54.079599 27.0398,63.839527 9.8399271,74.959445 Z"
       id="path33" />
    <path
       style="fill:#000000;fill-opacity:1;fill-rule:evenodd;stroke:none"
       d="m 4.8799639,111.19918 3.6799727,-5.59996 5.5999584,-1.83999 4.239969,-1.19999 0.639995,-3.039977 1.199991,-9.279931 2.479982,-7.919942 -0.639996,-3.679973 -11.039918,-5.599958 -2.4799814,6.159954 6.7999494,1.839987 v 5.519959 l -1.839986,6.159954 -1.199991,6.159955 -3.1199771,3.039982 -5.5199592,1.27999 z"
       id="path35" />
    <path
       style="fill:#000000;fill-opacity:1;fill-rule:evenodd;stroke:none"
       d="M 4.8799639,130.15904 14.719891,119.75911 27.0398,108.0792 l 12.879904,-9.199932 12.23991,-6.79995 12.959904,-5.519959 14.079895,-4.239969 -36.799727,22.07984 -11.039918,7.99994 -7.999941,5.51996 -9.199932,8.55993 -8.6399359,8.63994 z"
       id="path37" />
    <path
       style="fill:#000000;fill-opacity:1;fill-rule:evenodd;stroke:none"
       d="m 11.679913,154.15886 7.359946,-13.5199 7.999941,-7.99994 4.319968,2.47998 -1.919986,22.71983 h 6.159954 l 3.679973,3.03998 1.279991,6.79995 0.559995,9.83993 9.839928,-10.47993 11.039918,-7.99994 12.319908,-6.15995 12.879905,-6.71995 17.199876,-6.71995 15.99988,-1.83999 h 11.03992 l -4.31997,3.67997 -21.51984,4.87997 -14.079898,4.87996 -11.679913,6.15996 -12.319909,6.15995 -11.599914,7.99994 -12.319909,11.03992 -1.199991,9.19993 -6.79995,-6.15995 v -17.75987 l -0.559996,-3.11998 -4.319968,-2.39998 h -4.319968 l -1.839986,-3.11998 0.639995,-16.55988 -3.679972,5.51996 -1.839987,4.87997 -4.319968,6.79995 z"
       id="path39" />
    <path
       style="fill:#000000;fill-opacity:1;fill-rule:evenodd;stroke:none"
       d="m 43.599677,66.319509 -3.039977,7.99994 -1.839987,12.23991 -1.27999,15.359891 1.839986,14.79989 1.839986,13.4399 2.479982,12.3199 4.319968,11.03992 5.519959,15.35989 6.71995,11.03992 7.999941,9.83992 11.679914,11.03992 20.239851,17.83987 15.99988,1.83999 -7.35995,-7.35995 7.99995,-2.47998 14.07989,-1.83999 4.31997,1.83999 h 6.15995 l 5.51996,-2.47998 9.83993,-1.19999 v 6.15995 l 9.75993,-6.79995 12.31991,-9.75993 10.39992,-10.47992 7.43994,-7.99994 5.51996,-11.03992 -4.95996,0.64 -3.03998,4.23997 -6.15995,6.79995 -4.87997,7.99994 -12.9599,10.39992 -9.19993,6.15995 h -10.39992 l -7.35995,1.2 -4.95996,1.27999 3.11997,-5.51996 4.23997,-10.47993 -3.67997,2.47999 -4.87996,7.35994 -3.03998,4.31997 -14.1599,3.03998 -7.35994,1.83998 h -7.35995 l -7.359944,-3.03997 -7.439944,-4.95997 -9.199932,-8.55993 -7.999941,-8.63994 -7.919941,-9.75993 -6.159955,-9.27993 -5.519959,-11.67991 -3.679973,-11.03992 -3.119976,-9.83993 -1.839987,-12.23991 -1.199991,-14.71989 -1.199991,-15.99988 1.839986,-11.039918 0.559996,-6.799949 z"
       id="path41" />
    <path
       style="fill:#000000;fill-opacity:1;fill-rule:evenodd;stroke:none"
       d="m 86.559359,4.319968 -11.039918,7.999941 -7.359946,6.71995 -12.239909,14.719891 -6.159955,14.719891 6.719951,-4.239969 6.159954,-9.839927 7.999941,-9.839927 6.71995,-7.359945 7.359945,-6.159955 8.639936,-6.1599541 z"
       id="path43" />
    <path
       style="fill:#000000;fill-opacity:1;fill-rule:evenodd;stroke:none"
       d="m 108.0792,6.1599544 9.83993,5.5199586 7.35994,5.51996 6.15996,5.519959 6.71995,9.199932 7.35994,14.159895 4.31997,13.5199 5.51996,14.71989 3.11998,19.039859 v 25.199812 l -0.64,19.59986 -1.83999,11.03991 -1.83998,12.31991 -4.31997,12.87991 -4.31997,11.67991 4.95997,-3.67997 5.51995,-12.31991 4.87997,-17.19987 2.47998,-20.23985 1.19999,-14.0799 -1.83999,-20.879844 -1.19999,-18.479863 -3.67997,-13.5199 -4.31997,-12.879904 -7.35994,-17.199873 -5.51996,-10.399923 -8.55994,-9.199932 -8.63993,-5.519959 -5.51996,-4.9599629 z"
       id="path45" />
    <path
       style="fill:#000000;fill-opacity:1;fill-rule:evenodd;stroke:none"
       d="m 96.399286,76.159436 17.839864,-4.959963 17.83987,-2.399983 13.4399,-0.639995 14.1599,-1.199991 17.83987,2.399982 13.4399,3.119977 23.99982,7.999941 8.55993,5.519959 12.87991,11.039918 -1.83999,14.159899 -6.71995,-3.75998 -2.47998,-4.87996 2.47998,-3.039977 -3.67997,-4.959963 -10.47992,-7.999941 -9.75993,-3.679973 -14.1599,-4.879964 -14.71989,-3.039977 -12.31991,-1.279991 -14.07989,-1.199991 -14.71989,0.559996 -14.79989,2.479982 -10.39993,1.839986 -14.799886,3.679973 z"
       id="path47" />
    <path
       style="fill:#000000;fill-opacity:1;fill-rule:evenodd;stroke:none"
       d="m 121.5991,115.43914 11.03992,-4.23996 9.19993,-3.75998 14.15989,-0.55999 -1.83998,4.31997 h -9.83993 l -9.19993,3.03997 -12.31991,6.15996 z"
       id="path49" />
    <path
       style="fill:#000000;fill-opacity:1;fill-rule:evenodd;stroke:none"
       d="m 145.51892,139.43897 14.1599,-1.83999 17.83987,1.19999 10.39992,3.03998 9.19993,4.31997 11.03992,11.03992 3.11997,6.15995 2.39999,15.35989 -15.91988,13.5199 4.87996,-11.03992 1.83999,-9.27993 -0.56,-9.75993 -4.31997,-7.35995 -6.79995,-4.31996 -8.55993,-3.67998 -8.55994,-1.83998 -10.47992,-2.47999 h -12.87991 l -6.79995,0.64 z"
       id="path51" />
    <path
       style="fill:#000000;fill-opacity:1;fill-rule:evenodd;stroke:none"
       d="m 169.51874,108.71919 3.03998,3.67998 h 7.99994 l 3.03998,4.31997 -0.56,11.59991 -2.47998,14.15989 -1.19999,12.31991 -1.83998,7.35995 -7.43995,3.67997 h -14.71989 l 0.63999,-3.67997 6.71995,1.19999 7.35995,-3.03998 4.31997,-4.95996 1.27999,-12.23991 2.39998,-16.63988 -0.55999,-8.55993 -4.31997,-1.19999 -4.31997,-1.83999 z"
       id="path53" />
    <path
       style="fill:#000000;fill-opacity:1;fill-rule:evenodd;stroke:none"
       d="m 119.11912,193.43857 0.63999,9.19993 3.03998,1.83999 6.79995,-4.87997 8.55994,-5.51996 3.67997,-5.51996 -0.56,-5.51996 3.03998,-5.51995 4.87996,-6.15996 -3.03997,-4.31997 -4.31997,5.51996 -3.67997,4.31997 -2.39999,5.51996 -0.63999,6.15995 -1.83999,3.67998 -4.95996,3.67997 -3.67997,3.03998 -2.39999,-7.35995 z"
       id="path55" />
    <path
       style="fill:#000000;fill-opacity:1;fill-rule:evenodd;stroke:none"
       d="m 198.39853,35.03974 4.87996,11.039919 6.15996,9.199932 5.51996,9.839927 2.47998,6.079955 10.39992,-1.839987 0.64,4.319968 -8.63994,2.479982 1.27999,11.679913 1.19999,15.919881 -1.19999,14.79989 -1.83998,9.75993 -5.59996,15.35989 v -6.07996 l 3.11997,-19.03986 0.64,-15.35988 V 91.519322 l -3.11998,-12.879905 -2.47998,-9.839927 -4.23997,-8.639936 -5.51996,-7.359945 -4.95996,6.79995 4.95996,5.519959 4.87997,3.039977 -0.64,3.039978 -4.87996,-0.559996 -7.35995,-5.519959 -3.67997,-4.959964 3.67997,-5.519959 4.31997,-6.159954 -3.11998,-7.919941 -4.31996,-4.319968 -10.39993,-5.51996 -16.55987,-4.319968 -25.83981,-1.199991 h -25.11982 l -16.639874,3.039978 -6.71995,1.839986 -3.119977,-2.479981 9.279931,-2.399983 20.87985,-3.679972 16.55987,-1.839987 23.35983,1.199991 17.75987,3.679973 19.03986,3.039978 z"
       id="path57" />
    <path
       style="fill:#000000;fill-opacity:1;fill-rule:evenodd;stroke:none"
       d="m 79.839409,113.03916 18.399863,6.71995 6.799948,2.47998 -4.31997,9.75993 -4.87996,13.5199 -1.27999,5.51996 4.319968,3.75997 9.839922,5.51996 6.15996,3.03998 v 16.55988 l 3.03998,7.35994 1.19999,-6.07995 -0.56,-9.27993 1.83999,-5.51996 -1.27999,-6.07996 -6.71995,-3.11997 -5.51996,-4.31997 -6.79995,-3.67998 3.67997,-15.27988 6.15996,-7.43995 -1.83999,-6.07995 -9.199932,-5.51996 -9.839928,-3.67997 -4.879963,-2.47999 z"
       id="path59" />
    <path
       style="fill:#000000;fill-opacity:1;fill-rule:evenodd;stroke:none"
       d="m 76.799431,106.87921 -1.27999,-4.95996 -3.039978,-6.07996 -3.679973,-3.119977 -6.799949,1.839987 -2.399982,6.79995 -1.839987,-2.479982 -3.679973,0.639995 v 2.399987 l 5.51996,7.35994 4.239968,4.95996 4.319968,-1.19999 -1.199991,-4.31997 -1.839986,-5.51995 -0.639996,-4.319972 3.039978,-1.199992 2.479981,4.879964 3.679973,5.51996 3.119977,1.83999 z"
       id="path61" />
    <path
       style="fill:#000000;fill-opacity:1;fill-rule:evenodd;stroke:none"
       d="m 75.519441,37.439723 -7.359946,8.639936 -7.359945,5.519959 -6.719951,10.399923 2.399983,3.119977 v 5.519959 l -1.839987,5.519959 -1.199991,7.359945 0.639995,11.679914 -4.319968,-4.959963 -2.479981,-9.199932 2.479981,-9.199932 0.559996,-4.879964 -1.839986,-3.679973 1.839986,-5.519959 5.599959,-6.799949 9.199932,-7.999941 9.839927,-8.559937 z"
       id="path63" />
    <path
       style="fill:#000000;fill-opacity:1;fill-rule:evenodd;stroke:none"
       d="m 69.359486,30.079777 7.999941,-4.319968 7.999941,-3.039977 5.519959,0.639995 -3.039978,2.399982 -7.359945,3.119977 -6.159955,1.199991 -4.959963,4.959963 z"
       id="path65" />
    <path
       style="fill:#000000;fill-opacity:1;fill-rule:evenodd;stroke:none"
       d="m 98.239272,30.079777 0.639996,3.679973 -1.839987,4.319968 -0.639995,4.879964 1.27999,4.319968 3.039974,3.039977 5.51996,0.639996 4.31997,-0.639996 1.83999,6.159955 5.51996,2.479981 4.31996,-2.479981 1.83999,-5.519959 0.56,-9.199932 6.15995,-7.359946 -0.63999,-6.799949 -4.23997,2.479981 -2.47998,4.959963 -5.51996,6.079955 1.19999,6.159955 -0.56,6.159954 -2.47998,-1.839986 -1.19999,-5.519959 -4.95996,-3.119977 -3.67998,3.119977 -3.67997,-1.839987 -0.63999,-5.519959 3.67997,-8.639936 -3.03998,-1.839986 z"
       id="path67" />
    <path
       style="fill:#000000;fill-opacity:1;fill-rule:evenodd;stroke:none"
       d="m 147.9989,23.359827 7.99994,4.879964 6.71995,1.839986 -0.55999,4.319968 -9.83993,7.359946 -12.8799,12.319908 19.03986,-11.119917 3.67997,2.479981 1.83999,10.479923 -4.31997,3.039977 -4.87997,1.199991 -7.43994,8.639936 -5.51996,7.999941 -3.67997,5.519959 -5.51996,3.679973 -4.31997,0.559996 0.63999,5.519959 -1.83998,6.79995 -4.31997,1.199992 -2.39998,-2.399984 -1.83999,-4.319968 -0.63999,-4.319968 -3.67998,-2.479981 -6.79995,2.479981 -6.71995,4.319968 -1.199987,-4.319968 9.199927,-5.519959 7.99995,-2.479981 4.87996,1.27999 v 5.519959 l 1.83999,6.719951 1.19999,-5.51996 1.83998,-5.519959 7.43995,-2.479981 7.35994,-6.719951 4.23997,-7.359945 8.63994,-9.199932 1.83998,-4.959963 -0.63999,-4.319968 -6.15996,4.319968 -8.55993,5.519959 -5.51996,4.319968 -3.67997,-4.319968 7.99994,-9.839927 6.71995,-7.359946 9.19993,-6.71995 -6.15996,-4.959963 -5.51995,-6.079955 z"
       id="path69" />
    <path
       style="fill:#000000;fill-opacity:1;fill-rule:evenodd;stroke:none"
       d="m 219.83837,97.039281 -21.43984,9.839929 1.19999,9.83993 -1.83998,10.39992 -1.2,6.79995 -1.27999,5.51996 6.15996,4.23997 9.19993,6.79995 3.67997,-0.64 -2.47998,-3.67997 -4.87996,-5.51996 -5.51996,-3.03998 1.83998,-12.31991 2.47999,-11.03992 1.19999,-4.95996 7.35994,-4.87996 5.51996,-1.19999 z"
       id="path71" />
    <path
       style="fill:#000000;fill-opacity:1;fill-rule:evenodd;stroke:none"
       d="m 93.919304,91.519322 -3.679972,6.159954 v 6.719954 l 4.959963,4.31996 6.159955,2.47999 4.23997,-3.75998 1.83998,-3.67997 4.95997,3.11998 -4.31997,2.39998 -0.64,4.31997 2.47999,3.11998 7.35994,4.23996 1.27999,-3.67997 -3.11998,-2.39998 -0.55999,-2.47998 2.39998,-3.11998 0.64,-3.03998 -2.47999,-4.87996 -4.31996,-3.119978 -4.87997,0.639996 -3.67997,4.879962 -3.039977,1.83999 -4.959963,-2.39998 0.639995,-4.319972 2.479981,-4.319968 z"
       id="path73" />
    <path
       style="fill:#000000;fill-opacity:1;fill-rule:evenodd;stroke:none"
       d="m 87.199354,12.319909 14.159896,-1.839987 7.35994,-1.2799901 6.15996,3.1199771 -4.31997,12.239909 -4.31997,-3.679973 -8.559934,-1.199991 -7.439944,-1.839986 4.959963,-1.839987 7.999945,0.559996 4.23996,1.279991 3.11998,-3.679973 -6.79995,-0.639995 h -6.079954 l -11.119917,2.479981 z"
       id="path75" />
    <path
       style="fill:#7ed0e0;fill-opacity:1;fill-rule:evenodd;stroke:none"
       d="M 50.959623,17.839868 25.199813,47.919645 8.5599366,74.319449 3.6799727,99.519263 2.4799816,126.47906 l 10.3999234,30.71978 20.319849,27.67979 24.559818,21.43984 38.639714,12.31991 31.359764,2.47998 39.91971,-9.27993 36.23973,-21.43984 20.87984,-25.83981 9.75993,-35.59974 V 92.079318 L 227.19832,63.279531 208.79845,39.279709 187.27861,22.079836 166.39877,12.879905 146.15892,6.7199502 120.9591,3.0399775 103.75923,2.4799816 79.199413,7.3599455 Z"
       id="path77" />
    <path
       style="fill:#cceaee;fill-opacity:1;fill-rule:evenodd;stroke:none"
       d="m 160.31881,23.919823 -14.15989,-5.519959 -16.55988,-3.039978 -15.35989,1.199991 -9.83992,7.359946 1.19999,11.679913 13.5199,10.479923 20.31985,10.399923 19.59985,15.999881 17.83987,18.399864 9.19993,18.399863 3.03998,14.1599 -0.56,15.35988 -1.83998,6.71995 6.71995,2.47998 6.79995,-9.19993 4.23997,-14.71989 V 109.91919 L 201.43851,87.199354 189.1186,56.479582 173.19872,35.03974 Z"
       id="path79" />
    <path
       style="fill:#26bcd6;fill-opacity:1;fill-rule:evenodd;stroke:none"
       d="m 53.439604,20.23985 -4.959963,7.999941 0.639995,11.679913 9.839927,11.679914 26.399805,11.679913 24.559822,7.919942 16.55987,10.479922 14.1599,16.559877 7.99994,15.359888 5.51996,15.99988 4.31997,22.71983 v 26.39981 l -4.31997,17.83986 -7.99994,12.87991 -14.71989,9.19993 -20.87985,1.19999 L 76.799431,213.67842 49.119636,201.43851 28.239791,182.39865 11.679913,155.99884 2.4799816,117.27913 6.7199502,85.359368 15.359886,57.759572 30.719772,37.439723 Z"
       id="path81" />
    <path
       style="fill:#73c167;fill-opacity:1;fill-rule:evenodd;stroke:none"
       d="m 196.55854,30.719772 3.67998,18.399864 -5.51996,11.039918 9.75993,8.639936 15.99988,20.23985 -0.64,11.03992 15.99988,9.19993 -6.79995,-37.439722 -13.4399,-25.199813 z"
       id="path83" />
    <path
       style="fill:#54b948;fill-opacity:1;fill-rule:evenodd;stroke:none"
       d="M 9.8399271,156.63884 27.0398,135.119 l 0.559996,23.91982 9.279931,2.47998 0.559996,28.23979 -17.759869,-15.91988 z"
       id="path85" />
    <path
       style="fill:#54b948;fill-opacity:1;fill-rule:evenodd;stroke:none"
       d="m 214.95841,175.0387 0.63999,-15.35988 -6.15995,-11.67992 -10.47992,-11.03991 2.47998,-28.87979 16.55988,-6.15995 15.35988,0.63999 1.19999,23.91982 -6.07995,27.6798 z"
       id="path87" />
    <path
       style="fill:#ffffff;fill-opacity:1;fill-rule:evenodd;stroke:none"
       d="m 94.5593,217.43839 19.67985,-7.99994 20.23985,-1.83999 27.0398,-3.67997 -3.67997,10.39992 -24.55982,5.51996 -22.15983,1.83999 z"
       id="path89" />
    <path
       style="fill:#54b948;fill-opacity:1;fill-rule:evenodd;stroke:none"
       d="m 10.399923,74.319449 9.279931,7.359946 -4.319968,20.239855 -12.8799044,8.63993 z"
       id="path91" />
    <path
       style="fill:#54b948;fill-opacity:1;fill-rule:evenodd;stroke:none"
       d="m 120.9591,200.23852 -4.87996,-22.71983 1.19999,-14.1599 -18.399862,-13.5199 3.039982,-13.5199 3.11997,-11.67991 19.03986,-9.19994 22.07984,-7.35994 14.15989,1.19999 18.39987,7.43995 0.63999,15.91988 -3.67997,28.23979 -12.95991,4.31997 h -6.07995 l -13.5199,7.35994 -5.51996,11.67992 -2.47998,9.19993 -12.31991,11.03992 z"
       id="path93" />
    <path
       style="fill:#54b948;fill-opacity:1;fill-rule:evenodd;stroke:none"
       d="m 67.5195,97.039281 8.639936,9.839929 4.879964,4.87996 27.0398,12.31991 9.19993,-4.31997 -3.67997,-3.03997 1.83998,-12.31991 -7.99994,-4.31997 -7.919937,8.63993 -8.639936,-4.95996 2.479981,-10.399922 z"
       id="path95" />
    <path
       style="fill:#54b948;fill-opacity:1;fill-rule:evenodd;stroke:none"
       d="m 87.199354,13.5199 19.039856,-1.839987 7.35995,1.839987 -3.67997,7.359945 -11.679918,-3.039977 h -7.359945 z"
       id="path97" />
    <path
       style="fill:#49a942;fill-opacity:1;fill-rule:evenodd;stroke:none"
       d="m 88.399345,24.559818 -16.559877,6.79995 -4.319968,9.759927 -16.559877,19.039859 1.199991,11.039919 -1.199991,12.959904 5.519959,15.359886 7.359945,12.879907 2.479982,-14.719894 9.839927,11.039914 15.919882,-12.8799 15.999882,-9.279931 9.83993,-2.399982 5.51996,14.719891 5.51995,-14.719891 6.79995,-3.679973 9.75993,-11.119918 15.99988,-15.919882 -3.67997,-8.639936 -22.71983,15.359886 7.99994,-14.719891 15.35989,-13.519899 -13.5199,-9.199932 -12.31991,4.319968 -11.67992,13.5199 v 14.719891 l -4.87996,1.199991 -4.31997,-8.559937 H 99.519263 l -1.279991,-6.79995 2.479978,-11.679913 -2.479978,-3.679973 z"
       id="path99" />
    <path
       style="fill:#000000;fill-opacity:1;fill-rule:evenodd;stroke:none"
       d="M 120.39911,1.8399864 102.55924,0 84.159377,3.0399775 66.959504,7.9999407 55.919586,13.5199 44.799668,20.879845 33.75975,30.079777 22.079836,44.799668 15.359886,54.639595 8.5599366,68.159495 3.6799727,80.479404 0.63999526,97.039281 0,112.39917 l 1.8399864,19.03986 4.8799638,16.55987 6.1599548,16.55988 7.99994,12.95991 10.479923,12.2399 11.599914,10.47993 14.79989,9.19993 15.279887,6.15995 17.199873,4.87997 18.479858,3.03997 17.19988,0.64 17.75987,-1.83999 20.87984,-5.51996 13.5199,-4.95996 16.63988,-11.03992 14.71989,-12.23991 7.99994,-10.47992 9.75993,-16.55988 3.67997,-13.5199 0.64,-8.55993 -3.03998,-5.51996 -1.27999,9.19993 -2.39999,9.75993 -6.79994,10.47992 -0.56,-7.35995 -4.31997,1.2 0.56,6.79995 0.63999,7.35994 -9.83992,9.19993 -6.07996,7.99994 -11.11992,7.35995 -11.03992,6.71995 -8.55993,5.51996 -17.19987,4.31997 -18.39987,2.47998 -17.19987,0.63999 L 97.679276,214.31841 84.159377,209.43845 65.119518,203.27849 52.799609,195.27855 42.399686,186.07862 27.599796,173.83871 18.399864,159.03882 12.879905,147.35891 8.5599366,133.91901 6.7199502,122.23909 6.1599544,112.39917 7.9999407,98.879268 10.399923,85.999363 15.999881,70.639477 25.199813,52.799609 34.399745,41.119695 43.599677,30.079777 56.479582,19.679854 71.839468,12.879905 85.359368,7.9999407 104.39923,4.8799639 Z"
       id="path101" />
    <path
       style="fill:#000000;fill-opacity:1;fill-rule:evenodd;stroke:none"
       d="m 138.79897,3.6799727 20.87985,5.5199592 14.71989,5.5199591 14.71989,6.79995 12.9599,9.199931 17.75987,17.759869 9.19993,15.999881 5.51996,12.319909 3.75997,13.439901 1.83999,14.159898 -1.27999,15.99988 -3.67997,17.19987 -1.83999,-10.47992 -3.03998,-11.03992 0.56,-11.67991 -1.19999,-17.839871 -3.67997,-11.599914 -5.51996,-11.679914 -6.15996,-10.479922 -7.99994,-7.999941 -15.91988,-14.719891 -13.5199,-8.559936 -14.71989,-5.51996 -16.63988,-6.7999491 z"
       id="path103" />
    <path
       style="fill:#000000;fill-opacity:1;fill-rule:evenodd;stroke:none"
       d="m 12.879905,68.79949 12.319908,-11.039918 7.999941,-4.319968 12.239909,-6.799949 14.719891,-7.359946 6.79995,-1.199991 V 40.5597 L 55.919586,46.079659 41.119695,54.079599 27.0398,63.839527 9.8399271,74.959445 Z"
       id="path105" />
    <path
       style="fill:#000000;fill-opacity:1;fill-rule:evenodd;stroke:none"
       d="m 4.8799639,111.19918 3.6799727,-5.59996 5.5999584,-1.83999 4.239969,-1.19999 0.639995,-3.039977 1.199991,-9.279931 2.479982,-7.919942 -0.639996,-3.679973 -11.039918,-5.599958 -2.4799814,6.159954 6.7999494,1.839987 v 5.519959 l -1.839986,6.159954 -1.199991,6.159955 -3.1199771,3.039982 -5.5199592,1.27999 z"
       id="path107" />
    <path
       style="fill:#000000;fill-opacity:1;fill-rule:evenodd;stroke:none"
       d="M 4.8799639,130.15904 14.719891,119.75911 27.0398,108.0792 l 12.879904,-9.199932 12.23991,-6.79995 12.959904,-5.519959 14.079895,-4.239969 -36.799727,22.07984 -11.039918,7.99994 -7.999941,5.51996 -9.199932,8.55993 -8.6399359,8.63994 z"
       id="path109" />
    <path
       style="fill:#000000;fill-opacity:1;fill-rule:evenodd;stroke:none"
       d="m 11.679913,154.15886 7.359946,-13.5199 7.999941,-7.99994 4.319968,2.47998 -1.919986,22.71983 h 6.159954 l 3.679973,3.03998 1.279991,6.79995 0.559995,9.83993 9.839928,-10.47993 11.039918,-7.99994 12.319908,-6.15995 12.879905,-6.71995 17.199876,-6.71995 15.99988,-1.83999 h 11.03992 l -4.31997,3.67997 -21.51984,4.87997 -14.079898,4.87996 -11.679913,6.15996 -12.319909,6.15995 -11.599914,7.99994 -12.319909,11.03992 -1.199991,9.19993 -6.79995,-6.15995 v -17.75987 l -0.559996,-3.11998 -4.319968,-2.39998 h -4.319968 l -1.839986,-3.11998 0.639995,-16.55988 -3.679972,5.51996 -1.839987,4.87997 -4.319968,6.79995 z"
       id="path111" />
    <path
       style="fill:#000000;fill-opacity:1;fill-rule:evenodd;stroke:none"
       d="m 51.599618,69.999481 -3.039978,7.999941 -1.839986,12.23991 -1.279991,15.359888 1.839987,14.79989 1.839986,13.4399 2.479982,12.31991 4.319968,11.03992 5.519959,15.35988 6.71995,11.03992 7.999941,9.83993 11.679913,11.03992 20.239851,17.83986 15.99988,1.83999 -7.35994,-7.35995 7.99994,-2.47998 14.07989,-1.83998 4.31997,1.83998 h 6.15995 l 5.51996,-2.47998 9.83993,-1.19999 v 6.15995 l 9.75993,-6.79995 12.31991,-9.75992 10.39992,-10.47993 7.43994,-7.99994 5.51996,-11.03991 -4.95996,0.63999 -3.03998,4.23997 -6.15995,6.79995 -4.87997,7.99994 -12.9599,10.39992 -9.19993,6.15996 h -10.39992 l -7.35995,1.19999 -4.95996,1.27999 3.11997,-5.51996 4.23997,-10.47992 -3.67997,2.47998 -4.87996,7.35994 -3.03998,4.31997 -14.1599,3.03998 -7.35994,1.83999 h -7.35995 l -7.35994,-3.03998 -7.439948,-4.95996 -9.199932,-8.55994 -7.99994,-8.63994 -7.919942,-9.75992 -6.159954,-9.27994 -5.519959,-11.67991 -3.679973,-11.03992 -3.119977,-9.83993 -1.839986,-12.2399 -1.199991,-14.7199 -1.199991,-15.999877 1.839986,-11.039918 0.559996,-6.79995 z"
       id="path113" />
    <path
       style="fill:#000000;fill-opacity:1;fill-rule:evenodd;stroke:none"
       d="m 86.559359,4.319968 -11.039918,7.999941 -7.359946,6.71995 -12.239909,14.719891 -6.159955,14.719891 6.719951,-4.239969 6.159954,-9.839927 7.999941,-9.839927 6.71995,-7.359945 7.359945,-6.159955 8.639936,-6.1599541 z"
       id="path115" />
    <path
       style="fill:#000000;fill-opacity:1;fill-rule:evenodd;stroke:none"
       d="m 108.0792,6.1599544 9.83993,5.5199586 7.35994,5.51996 6.15996,5.519959 6.71995,9.199932 7.35994,14.159895 4.31997,13.5199 5.51996,14.71989 3.11998,19.039859 v 25.199812 l -0.64,19.59986 -1.83999,11.03991 -1.83998,12.31991 -4.31997,12.87991 -4.31997,11.67991 4.95997,-3.67997 5.51995,-12.31991 4.87997,-17.19987 2.47998,-20.23985 1.19999,-14.0799 -1.83999,-20.879844 -1.19999,-18.479863 -3.67997,-13.5199 -4.31997,-12.879904 -7.35994,-17.199873 -5.51996,-10.399923 -8.55994,-9.199932 -8.63993,-5.519959 -5.51996,-4.9599629 z"
       id="path117" />
    <path
       style="fill:#000000;fill-opacity:1;fill-rule:evenodd;stroke:none"
       d="m 96.399286,76.159436 17.839864,-4.959963 17.83987,-2.399983 13.4399,-0.639995 14.1599,-1.199991 17.83987,2.399982 13.4399,3.119977 23.99982,7.999941 8.55993,5.519959 12.87991,11.039918 -1.83999,14.159899 -6.71995,-3.75998 -2.47998,-4.87996 2.47998,-3.039977 -3.67997,-4.959963 -10.47992,-7.999941 -9.75993,-3.679973 -14.1599,-4.879964 -14.71989,-3.039977 -12.31991,-1.279991 -14.07989,-1.199991 -14.71989,0.559996 -14.79989,2.479982 -10.39993,1.839986 -14.799886,3.679973 z"
       id="path119" />
    <path
       style="fill:#000000;fill-opacity:1;fill-rule:evenodd;stroke:none"
       d="m 121.5991,115.43914 11.03992,-4.23996 9.19993,-3.75998 14.15989,-0.55999 -1.83998,4.31997 h -9.83993 l -9.19993,3.03997 -12.31991,6.15996 z"
       id="path121" />
    <path
       style="fill:#000000;fill-opacity:1;fill-rule:evenodd;stroke:none"
       d="m 145.51892,139.43897 14.1599,-1.83999 17.83987,1.19999 10.39992,3.03998 9.19993,4.31997 11.03992,11.03992 3.11997,6.15995 2.39999,15.35989 -15.91988,13.5199 4.87996,-11.03992 1.83999,-9.27993 -0.56,-9.75993 -4.31997,-7.35995 -6.79995,-4.31996 -8.55993,-3.67998 -8.55994,-1.83998 -10.47992,-2.47999 h -12.87991 l -6.79995,0.64 z"
       id="path123" />
    <path
       style="fill:#000000;fill-opacity:1;fill-rule:evenodd;stroke:none"
       d="m 169.51874,108.71919 3.03998,3.67998 h 7.99994 l 3.03998,4.31997 -0.56,11.59991 -2.47998,14.15989 -1.19999,12.31991 -1.83998,7.35995 -7.43995,3.67997 h -14.71989 l 0.63999,-3.67997 6.71995,1.19999 7.35995,-3.03998 4.31997,-4.95996 1.27999,-12.23991 2.39998,-16.63988 -0.55999,-8.55993 -4.31997,-1.19999 -4.31997,-1.83999 z"
       id="path125" />
    <path
       style="fill:#000000;fill-opacity:1;fill-rule:evenodd;stroke:none"
       d="m 119.11912,193.43857 0.63999,9.19993 3.03998,1.83999 6.79995,-4.87997 8.55994,-5.51996 3.67997,-5.51996 -0.56,-5.51996 3.03998,-5.51995 4.87996,-6.15996 -3.03997,-4.31997 -4.31997,5.51996 -3.67997,4.31997 -2.39999,5.51996 -0.63999,6.15995 -1.83999,3.67998 -4.95996,3.67997 -3.67997,3.03998 -2.39999,-7.35995 z"
       id="path127" />
    <path
       style="fill:#000000;fill-opacity:1;fill-rule:evenodd;stroke:none"
       d="m 198.39853,35.03974 4.87996,11.039919 6.15996,9.199932 5.51996,9.839927 2.47998,6.079955 10.39992,-1.839987 0.64,4.319968 -8.63994,2.479982 1.27999,11.679913 1.19999,15.919881 -1.19999,14.79989 -1.83998,9.75993 -5.59996,15.35989 v -6.07996 l 3.11997,-19.03986 0.64,-15.35988 V 91.519322 l -3.11998,-12.879905 -2.47998,-9.839927 -4.23997,-8.639936 -5.51996,-7.359945 -4.95996,6.79995 4.95996,5.519959 4.87997,3.039977 -0.64,3.039978 -4.87996,-0.559996 -7.35995,-5.519959 -3.67997,-4.959964 3.67997,-5.519959 4.31997,-6.159954 -3.11998,-7.919941 -4.31996,-4.319968 -10.39993,-5.51996 -16.55987,-4.319968 -25.83981,-1.199991 h -25.11982 l -16.639874,3.039978 -6.71995,1.839986 -3.119977,-2.479981 9.279931,-2.399983 20.87985,-3.679972 16.55987,-1.839987 23.35983,1.199991 17.75987,3.679973 19.03986,3.039978 z"
       id="path129" />
    <path
       style="fill:#000000;fill-opacity:1;fill-rule:evenodd;stroke:none"
       d="m 79.839409,113.03916 18.399863,6.71995 6.799948,2.47998 -4.31997,9.75993 -4.87996,13.5199 -1.27999,5.51996 4.319968,3.75997 9.839922,5.51996 6.15996,3.03998 v 16.55988 l 3.03998,7.35994 1.19999,-6.07995 -0.56,-9.27993 1.83999,-5.51996 -1.27999,-6.07996 -6.71995,-3.11997 -5.51996,-4.31997 -6.79995,-3.67998 3.67997,-15.27988 6.15996,-7.43995 -1.83999,-6.07995 -9.199932,-5.51996 -9.839928,-3.67997 -4.879963,-2.47999 z"
       id="path131" />
    <path
       style="fill:#000000;fill-opacity:1;fill-rule:evenodd;stroke:none"
       d="m 76.799431,106.87921 -1.27999,-4.95996 -3.039978,-6.07996 -3.679973,-3.119977 -6.799949,1.839987 -2.399982,6.79995 -1.839987,-2.479982 -3.679973,0.639995 v 2.399987 l 5.51996,7.35994 4.239968,4.95996 4.319968,-1.19999 -1.199991,-4.31997 -1.839986,-5.51995 -0.639996,-4.319972 3.039978,-1.199992 2.479981,4.879964 3.679973,5.51996 3.119977,1.83999 z"
       id="path133" />
    <path
       style="fill:#000000;fill-opacity:1;fill-rule:evenodd;stroke:none"
       d="m 75.519441,37.439723 -7.359946,8.639936 -7.359945,5.519959 -6.719951,10.399923 2.399983,3.119977 v 5.519959 l -1.839987,5.519959 -1.199991,7.359945 0.639995,11.679914 -4.319968,-4.959963 -2.479981,-9.199932 2.479981,-9.199932 0.559996,-4.879964 -1.839986,-3.679973 1.839986,-5.519959 5.599959,-6.799949 9.199932,-7.999941 9.839927,-8.559937 z"
       id="path135" />
    <path
       style="fill:#000000;fill-opacity:1;fill-rule:evenodd;stroke:none"
       d="m 69.359486,30.079777 7.999941,-4.319968 7.999941,-3.039977 5.519959,0.639995 -3.039978,2.399982 -7.359945,3.119977 -6.159955,1.199991 -4.959963,4.959963 z"
       id="path137" />
    <path
       style="fill:#000000;fill-opacity:1;fill-rule:evenodd;stroke:none"
       d="m 98.239272,30.079777 0.639996,3.679973 -1.839987,4.319968 -0.639995,4.879964 1.27999,4.319968 3.039974,3.039977 5.51996,0.639996 4.31997,-0.639996 1.83999,6.159955 5.51996,2.479981 4.31996,-2.479981 1.83999,-5.519959 0.56,-9.199932 6.15995,-7.359946 -0.63999,-6.799949 -4.23997,2.479981 -2.47998,4.959963 -5.51996,6.079955 1.19999,6.159955 -0.56,6.159954 -2.47998,-1.839986 -1.19999,-5.519959 -4.95996,-3.119977 -3.67998,3.119977 -3.67997,-1.839987 -0.63999,-5.519959 3.67997,-8.639936 -3.03998,-1.839986 z"
       id="path139" />
    <path
       style="fill:#000000;fill-opacity:1;fill-rule:evenodd;stroke:none"
       d="m 147.9989,23.359827 7.99994,4.879964 6.71995,1.839986 -0.55999,4.319968 -9.83993,7.359946 -12.8799,12.319908 19.03986,-11.119917 3.67997,2.479981 1.83999,10.479923 -4.31997,3.039977 -4.87997,1.199991 -7.43994,8.639936 -5.51996,7.999941 -3.67997,5.519959 -5.51996,3.679973 -4.31997,0.559996 0.63999,5.519959 -1.83998,6.79995 -4.31997,1.199992 -2.39998,-2.399984 -1.83999,-4.319968 -0.63999,-4.319968 -3.67998,-2.479981 -6.79995,2.479981 -6.71995,4.319968 -1.199987,-4.319968 9.199927,-5.519959 7.99995,-2.479981 4.87996,1.27999 v 5.519959 l 1.83999,6.719951 1.19999,-5.51996 1.83998,-5.519959 7.43995,-2.479981 7.35994,-6.719951 4.23997,-7.359945 8.63994,-9.199932 1.83998,-4.959963 -0.63999,-4.319968 -6.15996,4.319968 -8.55993,5.519959 -5.51996,4.319968 -3.67997,-4.319968 7.99994,-9.839927 6.71995,-7.359946 9.19993,-6.71995 -6.15996,-4.959963 -5.51995,-6.079955 z"
       id="path141" />
    <path
       style="fill:#000000;fill-opacity:1;fill-rule:evenodd;stroke:none"
       d="m 219.83837,97.039281 -21.43984,9.839929 1.19999,9.83993 -1.83998,10.39992 -1.2,6.79995 -1.27999,5.51996 6.15996,4.23997 9.19993,6.79995 3.67997,-0.64 -2.47998,-3.67997 -4.87996,-5.51996 -5.51996,-3.03998 1.83998,-12.31991 2.47999,-11.03992 1.19999,-4.95996 7.35994,-4.87996 5.51996,-1.19999 z"
       id="path143" />
    <path
       style="fill:#000000;fill-opacity:1;fill-rule:evenodd;stroke:none"
       d="m 93.919304,91.519322 -3.679972,6.159954 v 6.719954 l 4.959963,4.31996 6.159955,2.47999 4.23997,-3.75998 1.83998,-3.67997 4.95997,3.11998 -4.31997,2.39998 -0.64,4.31997 2.47999,3.11998 7.35994,4.23996 1.27999,-3.67997 -3.11998,-2.39998 -0.55999,-2.47998 2.39998,-3.11998 0.64,-3.03998 -2.47999,-4.87996 -4.31996,-3.119978 -4.87997,0.639996 -3.67997,4.879962 -3.039977,1.83999 -4.959963,-2.39998 0.639995,-4.319972 2.479981,-4.319968 z"
       id="path145" />
    <path
       style="fill:#000000;fill-opacity:1;fill-rule:evenodd;stroke:none"
       d="m 87.199354,12.319909 14.159896,-1.839987 7.35994,-1.2799901 6.15996,3.1199771 -4.31997,12.239909 -4.31997,-3.679973 -8.559934,-1.199991 -7.439944,-1.839986 4.959963,-1.839987 7.999945,0.559996 4.23996,1.279991 3.11998,-3.679973 -6.79995,-0.639995 h -6.079954 l -11.119917,2.479981 z"
       id="path147" />
  </g>
</svg>
